<svg id="Layer_1" data-name="Layer 1" xmlns="http://www.w3.org/2000/svg" viewBox="0 0 100 100"><defs><style>.cls-1{fill:#fff;}</style></defs><path class="cls-1" d="M49.27,19.59A30.41,30.41,0,1,0,79.68,50,30.41,30.41,0,0,0,49.27,19.59Zm0,56A25.56,25.56,0,1,1,74.83,50,25.56,25.56,0,0,1,49.27,75.56Z"/><path class="cls-1" d="M49.83,60.81a37.29,37.29,0,0,0,3.84,1.42,9.27,9.27,0,0,0,4.23.27c1.29-.2,4-1.63,4.54-3.2a5.6,5.6,0,0,0,.39-3.2c-.17-.28-.61-.45-1.29-.78s-4-2-4.59-2.19-1.07-.34-1.52.33-1.74,2.19-2.13,2.64-.78.5-1.45.17a18.42,18.42,0,0,1-5.41-3.34,20,20,0,0,1-3.74-4.66c-.39-.67,0-1,.29-1.37s.68-.78,1-1.18a4.6,4.6,0,0,0,.68-1.12,1.22,1.22,0,0,0-.06-1.18c-.17-.33-1.51-3.64-2.07-5S41.45,37.3,41,37.28l-1.29,0A2.42,2.42,0,0,0,38,38.1a7.52,7.52,0,0,0-2.36,5.61c0,3.31,2.41,6.5,2.75,6.95S43.09,57.9,49.83,60.81Z"/><polygon class="cls-1" points="30.15 72.41 24.09 65.06 24.09 80.41 49.27 80.41 40.06 77.14 30.15 72.41"/></svg>