<svg id="Layer_1" data-name="Layer 1" xmlns="http://www.w3.org/2000/svg" viewBox="0 0 100 100"><defs><style>.cls-1{fill:#fff;}</style></defs><path class="cls-1" d="M19.3,79.09l3.49-12.78A1.74,1.74,0,0,0,22.63,65,31.69,31.69,0,1,1,35.9,78a1.73,1.73,0,0,0-1.26-.15L21.46,81.28A1.78,1.78,0,0,1,19.3,79.09Zm16.07-7a1.8,1.8,0,0,1,1.34.18,26.36,26.36,0,1,0-8.35-8.13,1.78,1.78,0,0,1,.2,1.39l-1.65,6a1.78,1.78,0,0,0,2.16,2.19ZM65.54,56.92c-.19-.31-.68-.5-1.43-.87S59.68,53.87,59,53.62s-1.19-.38-1.69.37-1.93,2.43-2.37,2.93-.87.56-1.62.19a20.64,20.64,0,0,1-6-3.71,22.64,22.64,0,0,1-4.16-5.18c-.43-.75,0-1.16.33-1.53s.75-.87,1.12-1.31a5.1,5.1,0,0,0,.76-1.24,1.39,1.39,0,0,0-.07-1.31c-.19-.38-1.68-4.06-2.3-5.56S41.76,36,41.3,36l-1.43,0a2.71,2.71,0,0,0-2,.93,8.38,8.38,0,0,0-2.62,6.24c0,3.68,2.68,7.24,3.05,7.73s5.27,8.06,12.77,11.29a45,45,0,0,0,4.27,1.58,10.28,10.28,0,0,0,4.71.3c1.43-.22,4.42-1.81,5-3.56A6.19,6.19,0,0,0,65.54,56.92Z"/></svg>